# xmcd
#
# Track frame offsets: 
#        150
#        24357
#        40870
#        72992
#        100420
#        117182
#        147930
#        172930
#        195207
#        227870
#        255035
#        280902
#
# Disc length: 4090 seconds
#
# Revision: 3
# Processed by: cddbd v1.5.2PL0 Copyright (c) Steve Scherf et al.
# Submitted via: ExactAudioCopy v1.0b4
#
DISCID=970ff80c
DTITLE=Johnny B. Moore - Live at Blue Chicago
DYEAR=1995
DGENRE=Blues
TTITLE0=Rollin' and Tumblin'
TTITLE1=Turn on Your Love Light
TTITLE2=Same Thing
TTITLE3=Sweet Little Angel
TTITLE4=All My Whole Life
TTITLE5=Back Door Friend
TTITLE6=All of Your Love
TTITLE7=Mean Mistreater
TTITLE8=You Can't Lose What You Never Had
TTITLE9=If You don't Put Nothin' in It
TTITLE10=Straight from the Shoulder
TTITLE11=Boogie Chillen'
EXTD=YEAR: 1995
EXTT0=
EXTT1=
EXTT2=
EXTT3=
EXTT4=
EXTT5=
EXTT6=
EXTT7=
EXTT8=
EXTT9=
EXTT10=
EXTT11=
PLAYORDER=
